<?xml version="1.0" standalone="no"?>
<!DOCTYPE svg PUBLIC "-//W3C//DTD SVG 20010904//EN"
 "http://www.w3.org/TR/2001/REC-SVG-20010904/DTD/svg10.dtd">
<svg version="1.0" xmlns="http://www.w3.org/2000/svg"
 width="1024.000000pt" height="1024.000000pt" viewBox="0 0 1024.000000 1024.000000"
 preserveAspectRatio="xMidYMid meet">

<g transform="translate(0.000000,1024.000000) scale(0.100000,-0.100000)"
fill="#FF8C00" stroke="none">
<path d="M5104 7692 c-178 -115 -305 -356 -304 -574 1 -146 40 -274 128 -420
112 -187 142 -270 142 -393 0 -98 -18 -164 -73 -268 l-42 -78 24 -20 c32 -26
51 -24 99 11 64 46 149 156 198 256 58 119 77 209 71 344 -5 123 -42 247 -110
370 -103 185 -133 290 -124 433 5 74 12 102 41 163 19 41 47 89 61 107 27 36
32 76 13 95 -22 22 -64 13 -124 -26z"/>
<path d="M4288 7161 c-89 -57 -176 -195 -199 -316 -13 -70 -7 -179 15 -250 8
-27 43 -97 77 -154 83 -140 102 -197 97 -287 -3 -59 -10 -85 -42 -148 -32 -62
-36 -78 -26 -91 27 -32 62 -18 130 53 102 106 150 220 150 363 0 98 -20 163
-85 279 -85 150 -89 162 -90 275 0 92 2 105 33 169 37 79 39 97 14 119 -24 22
-20 22 -74 -12z"/>
<path d="M5875 7161 c-16 -10 -51 -41 -77 -68 -85 -91 -128 -206 -128 -339 0
-109 26 -191 106 -330 80 -140 99 -207 84 -299 -11 -68 -26 -106 -62 -157 -15
-22 -17 -32 -8 -48 42 -78 207 83 266 260 14 40 19 83 18 160 -1 122 -9 150
-89 290 -74 131 -89 181 -83 283 4 65 12 97 37 152 37 82 36 115 -7 115 -15 0
-40 -8 -57 -19z"/>
<path d="M4904 5510 c-123 -14 -221 -57 -364 -159 -216 -154 -416 -377 -715
-796 -183 -257 -329 -447 -394 -516 -60 -63 -94 -74 -125 -43 -41 40 0 277 85
495 115 296 271 525 517 761 62 58 112 113 112 121 0 29 -28 40 -83 33 -178
-24 -539 -133 -767 -233 -542 -239 -924 -604 -1080 -1031 -59 -161 -77 -373
-46 -535 54 -282 265 -532 581 -690 314 -156 804 -252 1475 -289 316 -17 1879
-17 2145 0 501 32 842 87 1123 181 424 142 699 381 804 701 27 83 31 113 36
235 7 208 -28 365 -124 561 -111 226 -327 474 -428 491 -90 14 -374 -134 -611
-320 -116 -90 -192 -157 -397 -346 -230 -211 -246 -222 -282 -185 -50 50 28
263 162 443 172 232 438 446 717 577 69 32 125 61 125 64 0 9 -113 73 -235
133 -314 155 -564 205 -740 148 -274 -89 -591 -353 -999 -831 -163 -191 -440
-475 -496 -509 -44 -26 -65 -26 -91 0 -19 19 -21 29 -16 83 18 189 168 479
375 726 89 107 239 253 356 349 74 61 286 206 355 243 35 19 40 42 13 57 -29
15 -207 49 -348 67 -149 18 -536 27 -640 14z"/>
</g>
</svg>
